<?xml version="1.0" encoding="UTF-8"?>
<!-- Created with Inkscape (http://www.inkscape.org/) -->
<svg width="28.928mm" height="23.517mm" version="1.1" viewBox="0 0 28.928 23.517" xmlns="http://www.w3.org/2000/svg">
 <g transform="translate(135.25 4.6851)">
  <g transform="matrix(.35278 0 0 -.35278 -227.9 5.925)">
   <path d="m0 0h-1.3c-0.614 4.435-4.411 7.854-9.015 7.854-1.289 0-2.513-0.271-3.624-0.753-1.354 6.063-6.758 10.598-13.23 10.598-5.487 0-10.202-3.264-12.339-7.951-0.631 0.162-1.289 0.257-1.971 0.257-4.384 0-7.939-3.555-7.939-7.94 0-1.212 0.28-2.357 0.766-3.385-2.266-1.466-3.769-4.01-3.769-6.91 0-4.545 3.684-8.229 8.229-8.229h44.192c4.545 0 8.229 3.684 8.229 8.229s-3.684 8.23-8.229 8.23" fill="#fff"/>
   <path d="m0 0h-1.3c-0.614 4.435-4.411 7.854-9.015 7.854-1.289 0-2.513-0.271-3.624-0.753-1.354 6.063-6.758 10.598-13.23 10.598-5.487 0-10.202-3.264-12.339-7.951-0.631 0.162-1.289 0.257-1.971 0.257-4.384 0-7.939-3.555-7.939-7.94 0-1.212 0.28-2.357 0.766-3.385-2.266-1.466-3.769-4.01-3.769-6.91 0-4.545 3.684-8.229 8.229-8.229h44.192c4.545 0 8.229 3.684 8.229 8.229s-3.684 8.23-8.229 8.23z" fill="none" stroke="#231f20" stroke-linecap="round" stroke-linejoin="round" stroke-miterlimit="10" stroke-width="2"/>
  </g>
  <g transform="matrix(.35278 0 0 -.35278 -240.87 7.6573)">
   <path d="m0 0h1.523c0.721 5.2 5.173 9.208 10.571 9.208 1.511 0 2.947-0.317 4.249-0.883 1.588 7.11 7.924 12.427 15.512 12.427 6.434 0 11.961-3.827 14.467-9.322 0.74 0.189 1.511 0.3 2.311 0.3 5.14 0 9.308-4.167 9.308-9.308 0-1.422-0.328-2.764-0.898-3.969 2.657-1.719 4.42-4.702 4.42-8.102 0-5.329-4.32-9.649-9.649-9.649h-51.814c-5.329 0-9.649 4.32-9.649 9.649s4.32 9.649 9.649 9.649" fill="#fff"/>
   <path d="m0 0h1.523c0.721 5.2 5.173 9.208 10.571 9.208 1.511 0 2.947-0.317 4.249-0.883 1.588 7.11 7.924 12.427 15.512 12.427 6.434 0 11.961-3.827 14.467-9.322 0.74 0.189 1.511 0.3 2.311 0.3 5.14 0 9.308-4.167 9.308-9.308 0-1.422-0.328-2.764-0.898-3.969 2.657-1.719 4.42-4.702 4.42-8.102 0-5.329-4.32-9.649-9.649-9.649h-51.814c-5.329 0-9.649 4.32-9.649 9.649s4.32 9.649 9.649 9.649z" fill="none" stroke="#231f20" stroke-linecap="round" stroke-linejoin="round" stroke-miterlimit="10" stroke-width="2"/>
  </g>
  <g transform="matrix(.35278 0 0 -.35278 -118.91 6.7793)">
   <path d="m0 0c0-9.79-7.936-17.725-17.725-17.725-9.79 0-17.726 7.935-17.726 17.725s7.936 17.726 17.726 17.726c9.789 0 17.725-7.936 17.725-17.726" fill="#fff"/>
   <path d="m0 0c0-9.79-7.936-17.725-17.725-17.725-9.79 0-17.726 7.935-17.726 17.725s7.936 17.726 17.726 17.726c9.789 0 17.725-7.936 17.725-17.726z" fill="none" stroke="#231f20" stroke-linecap="round" stroke-linejoin="round" stroke-miterlimit="10" stroke-width="2"/>
  </g>
  <g transform="matrix(.35278 0 0 -.35278 -125.17 -4.3323)">
   <path d="m0 0v-11.167" fill="none" stroke="#231f20" stroke-linecap="round" stroke-linejoin="round" stroke-miterlimit="10" stroke-width="2"/>
  </g>
  <g transform="matrix(.35278 0 0 -.35278 -134.79 1.2234)">
   <path d="m0 0 9.671-5.583" fill="none" stroke="#231f20" stroke-linecap="round" stroke-linejoin="round" stroke-miterlimit="10" stroke-width="2"/>
  </g>
  <g transform="matrix(.35278 0 0 -.35278 -134.79 12.335)">
   <path d="m0 0 9.671 5.583" fill="none" stroke="#231f20" stroke-linecap="round" stroke-linejoin="round" stroke-miterlimit="10" stroke-width="2"/>
  </g>
  <g transform="matrix(.35278 0 0 -.35278 -115.54 1.2234)">
   <path d="m0 0-9.671-5.583" fill="none" stroke="#231f20" stroke-linecap="round" stroke-linejoin="round" stroke-miterlimit="10" stroke-width="2"/>
  </g>
  <g transform="matrix(.35278 0 0 -.35278 -130.03 -1.6498)">
   <path d="m0 0 4.891-8.471" fill="none" stroke="#231f20" stroke-linecap="round" stroke-linejoin="round" stroke-miterlimit="10" stroke-width="2"/>
  </g>
  <g transform="matrix(.35278 0 0 -.35278 -134.9 6.7793)">
   <path d="m0 0h9.782" fill="none" stroke="#231f20" stroke-linecap="round" stroke-linejoin="round" stroke-miterlimit="10" stroke-width="2"/>
  </g>
  <g transform="matrix(.35278 0 0 -.35278 -115.43 6.7793)">
   <path d="m0 0h-9.781" fill="none" stroke="#231f20" stroke-linecap="round" stroke-linejoin="round" stroke-miterlimit="10" stroke-width="2"/>
  </g>
  <g transform="matrix(.35278 0 0 -.35278 -120.3 -1.6498)">
   <path d="m0 0-4.891-8.471" fill="none" stroke="#231f20" stroke-linecap="round" stroke-linejoin="round" stroke-miterlimit="10" stroke-width="2"/>
  </g>
  <g transform="matrix(.35278 0 0 -.35278 -128.36 11.671)">
   <path d="m0 0h1.524c0.721 5.201 5.172 9.208 10.571 9.208 1.51 0 2.946-0.317 4.248-0.883 1.589 7.11 7.925 12.427 15.512 12.427 6.434 0 11.962-3.827 14.467-9.322 0.74 0.189 1.511 0.3 2.311 0.3 5.141 0 9.308-4.167 9.308-9.308 0-1.422-0.328-2.764-0.898-3.969 2.657-1.719 4.42-4.702 4.42-8.102 0-5.329-4.32-9.649-9.649-9.649h-51.814c-5.329 0-9.649 4.32-9.649 9.649s4.32 9.649 9.649 9.649" fill="#fff"/>
   <path d="m0 0h1.524c0.721 5.201 5.172 9.208 10.571 9.208 1.51 0 2.946-0.317 4.248-0.883 1.589 7.11 7.925 12.427 15.512 12.427 6.434 0 11.962-3.827 14.467-9.322 0.74 0.189 1.511 0.3 2.311 0.3 5.141 0 9.308-4.167 9.308-9.308 0-1.422-0.328-2.764-0.898-3.969 2.657-1.719 4.42-4.702 4.42-8.102 0-5.329-4.32-9.649-9.649-9.649h-51.814c-5.329 0-9.649 4.32-9.649 9.649s4.32 9.649 9.649 9.649z" fill="none" stroke="#231f20" stroke-linecap="round" stroke-linejoin="round" stroke-miterlimit="10" stroke-width="2"/>
  </g>
  <g transform="matrix(.35278 0 0 -.35278 -186.49 5.1665)">
   <path d="m0 0h1.523c0.721 5.201 5.173 9.208 10.571 9.208 1.511 0 2.947-0.317 4.249-0.882 1.588 7.109 7.924 12.426 15.512 12.426 6.434 0 11.961-3.827 14.467-9.322 0.74 0.189 1.511 0.301 2.311 0.301 5.141 0 9.308-4.168 9.308-9.309 0-1.422-0.328-2.764-0.898-3.969 2.657-1.719 4.42-4.702 4.42-8.102 0-5.329-4.32-9.649-9.649-9.649h-51.814c-5.329 0-9.649 4.32-9.649 9.649s4.32 9.649 9.649 9.649" fill="#fff"/>
   <path d="m0 0h1.523c0.721 5.201 5.173 9.208 10.571 9.208 1.511 0 2.947-0.317 4.249-0.882 1.588 7.109 7.924 12.426 15.512 12.426 6.434 0 11.961-3.827 14.467-9.322 0.74 0.189 1.511 0.301 2.311 0.301 5.141 0 9.308-4.168 9.308-9.309 0-1.422-0.328-2.764-0.898-3.969 2.657-1.719 4.42-4.702 4.42-8.102 0-5.329-4.32-9.649-9.649-9.649h-51.814c-5.329 0-9.649 4.32-9.649 9.649s4.32 9.649 9.649 9.649z" fill="none" stroke="#231f20" stroke-linecap="round" stroke-linejoin="round" stroke-miterlimit="10" stroke-width="2"/>
  </g>
  <g transform="matrix(.35278 0 0 -.35278 -186.84 16.301)">
   <path d="m0 0 2.938 6.779" fill="none" stroke="#231f20" stroke-linecap="round" stroke-linejoin="round" stroke-miterlimit="10" stroke-width="2"/>
  </g>
  <g transform="matrix(.35278 0 0 -.35278 -181.67 16.301)">
   <path d="m0 0 2.938 6.779" fill="none" stroke="#231f20" stroke-linecap="round" stroke-linejoin="round" stroke-miterlimit="10" stroke-width="2"/>
  </g>
  <g transform="matrix(.35278 0 0 -.35278 -176.51 16.301)">
   <path d="m0 0 2.938 6.779" fill="none" stroke="#231f20" stroke-linecap="round" stroke-linejoin="round" stroke-miterlimit="10" stroke-width="2"/>
  </g>
  <g transform="matrix(.35278 0 0 -.35278 -171.34 16.301)">
   <path d="m0 0 2.938 6.779" fill="none" stroke="#231f20" stroke-linecap="round" stroke-linejoin="round" stroke-miterlimit="10" stroke-width="2"/>
  </g>
  <g transform="matrix(.35278 0 0 -.35278 -237.96 164.34)">
   <path d="m0 0c-2.494 7.978 0.391 16.058 6.461 18.657-2.181 0.196-4.435-0.022-6.655-0.716-9.057-2.832-14.104-12.469-11.273-21.525 2.832-9.057 12.469-14.104 21.526-11.273 2.219 0.694 4.196 1.798 5.878 3.201-6.47-1.32-13.443 3.678-15.937 11.656z" fill="none" stroke="#231f20" stroke-linecap="round" stroke-linejoin="round" stroke-miterlimit="10" stroke-width="2"/>
  </g>
  <g transform="matrix(.35278 0 0 -.35278 -241.93 166.46)">
   <path d="m0 0h1.523c0.721 5.201 5.173 9.208 10.571 9.208 1.511 0 2.946-0.317 4.249-0.882 1.588 7.109 7.924 12.426 15.512 12.426 6.434 0 11.961-3.827 14.467-9.322 0.74 0.189 1.511 0.301 2.311 0.301 5.14 0 9.308-4.168 9.308-9.309 0-1.422-0.328-2.764-0.898-3.969 2.657-1.719 4.42-4.702 4.42-8.102 0-5.329-4.32-9.649-9.649-9.649h-51.814c-5.329 0-9.649 4.32-9.649 9.649s4.32 9.649 9.649 9.649" fill="#fff"/>
   <path d="m0 0h1.523c0.721 5.201 5.173 9.208 10.571 9.208 1.511 0 2.946-0.317 4.249-0.882 1.588 7.109 7.924 12.426 15.512 12.426 6.434 0 11.961-3.827 14.467-9.322 0.74 0.189 1.511 0.301 2.311 0.301 5.14 0 9.308-4.168 9.308-9.309 0-1.422-0.328-2.764-0.898-3.969 2.657-1.719 4.42-4.702 4.42-8.102 0-5.329-4.32-9.649-9.649-9.649h-51.814c-5.329 0-9.649 4.32-9.649 9.649s4.32 9.649 9.649 9.649z" fill="none" stroke="#231f20" stroke-linecap="round" stroke-linejoin="round" stroke-miterlimit="10" stroke-width="2"/>
  </g>
  <g transform="matrix(.35278 0 0 -.35278 -242.29 177.6)">
   <path d="m0 0 2.938 6.779" fill="none" stroke="#231f20" stroke-linecap="round" stroke-linejoin="round" stroke-miterlimit="10" stroke-width="2"/>
  </g>
  <g transform="matrix(.35278 0 0 -.35278 -237.12 177.6)">
   <path d="m0 0 2.938 6.779" fill="none" stroke="#231f20" stroke-linecap="round" stroke-linejoin="round" stroke-miterlimit="10" stroke-width="2"/>
  </g>
  <g transform="matrix(.35278 0 0 -.35278 -231.95 177.6)">
   <path d="m0 0 2.938 6.779" fill="none" stroke="#231f20" stroke-linecap="round" stroke-linejoin="round" stroke-miterlimit="10" stroke-width="2"/>
  </g>
  <g transform="matrix(.35278 0 0 -.35278 -226.78 177.6)">
   <path d="m0 0 2.938 6.779" fill="none" stroke="#231f20" stroke-linecap="round" stroke-linejoin="round" stroke-miterlimit="10" stroke-width="2"/>
  </g>
  <g transform="matrix(.35278 0 0 -.35278 -224.71 60.714)">
   <path d="m0 0c0-12.662-10.265-22.927-22.926-22.927-12.662 0-22.927 10.265-22.927 22.927s10.265 22.927 22.927 22.927c12.661 0 22.926-10.265 22.926-22.927" fill="#fff"/>
   <path d="m0 0c0-12.662-10.265-22.927-22.926-22.927-12.662 0-22.927 10.265-22.927 22.927s10.265 22.927 22.927 22.927c12.661 0 22.926-10.265 22.926-22.927z" fill="none" stroke="#231f20" stroke-linecap="round" stroke-linejoin="round" stroke-miterlimit="10" stroke-width="2"/>
  </g>
  <g transform="matrix(.35278 0 0 -.35278 -232.79 46.342)">
   <path d="m0 0v-14.444" fill="none" stroke="#231f20" stroke-linecap="round" stroke-linejoin="round" stroke-miterlimit="10" stroke-width="2"/>
  </g>
  <g transform="matrix(.35278 0 0 -.35278 -245.24 53.528)">
   <path d="m0 0 12.509-7.222" fill="none" stroke="#231f20" stroke-linecap="round" stroke-linejoin="round" stroke-miterlimit="10" stroke-width="2"/>
  </g>
  <g transform="matrix(.35278 0 0 -.35278 -245.24 67.9)">
   <path d="m0 0 12.509 7.222" fill="none" stroke="#231f20" stroke-linecap="round" stroke-linejoin="round" stroke-miterlimit="10" stroke-width="2"/>
  </g>
  <g transform="matrix(.35278 0 0 -.35278 -232.79 75.086)">
   <path d="m0 0v14.444" fill="none" stroke="#231f20" stroke-linecap="round" stroke-linejoin="round" stroke-miterlimit="10" stroke-width="2"/>
  </g>
  <g transform="matrix(.35278 0 0 -.35278 -220.35 67.9)">
   <path d="m0 0-12.509 7.222" fill="none" stroke="#231f20" stroke-linecap="round" stroke-linejoin="round" stroke-miterlimit="10" stroke-width="2"/>
  </g>
  <g transform="matrix(.35278 0 0 -.35278 -220.35 53.528)">
   <path d="m0 0-12.509-7.222" fill="none" stroke="#231f20" stroke-linecap="round" stroke-linejoin="round" stroke-miterlimit="10" stroke-width="2"/>
  </g>
  <g transform="matrix(.35278 0 0 -.35278 -239.09 49.811)">
   <path d="m0 0 6.326-10.957" fill="none" stroke="#231f20" stroke-linecap="round" stroke-linejoin="round" stroke-miterlimit="10" stroke-width="2"/>
  </g>
  <g transform="matrix(.35278 0 0 -.35278 -245.38 60.714)">
   <path d="m0 0h12.651" fill="none" stroke="#231f20" stroke-linecap="round" stroke-linejoin="round" stroke-miterlimit="10" stroke-width="2"/>
  </g>
  <g transform="matrix(.35278 0 0 -.35278 -239.09 71.616)">
   <path d="m0 0 6.326 10.957" fill="none" stroke="#231f20" stroke-linecap="round" stroke-linejoin="round" stroke-miterlimit="10" stroke-width="2"/>
  </g>
  <g transform="matrix(.35278 0 0 -.35278 -226.5 71.616)">
   <path d="m0 0-6.326 10.957" fill="none" stroke="#231f20" stroke-linecap="round" stroke-linejoin="round" stroke-miterlimit="10" stroke-width="2"/>
  </g>
  <g transform="matrix(.35278 0 0 -.35278 -220.2 60.714)">
   <path d="m0 0h-12.652" fill="none" stroke="#231f20" stroke-linecap="round" stroke-linejoin="round" stroke-miterlimit="10" stroke-width="2"/>
  </g>
  <g transform="matrix(.35278 0 0 -.35278 -226.5 49.811)">
   <path d="m0 0-6.326-10.957" fill="none" stroke="#231f20" stroke-linecap="round" stroke-linejoin="round" stroke-miterlimit="10" stroke-width="2"/>
  </g>
  <g transform="matrix(.35278 0 0 -.35278 -8.6647 118.1)">
   <path d="m0 0h-23.542c-5.329 0-9.649 4.32-9.649 9.649s4.32 9.649 9.649 9.649h1.524c0.721 5.201 5.172 9.209 10.571 9.209 1.51 0 2.946-0.318 4.248-0.883 1.589 7.108 7.925 12.426 15.512 12.426 6.434 0 11.962-3.827 14.467-9.322 0.741 0.189 1.512 0.301 2.311 0.301 5.141 0 9.308-4.168 9.308-9.309 0-1.422-0.328-2.763-0.898-3.969 2.658-1.719 4.42-4.702 4.42-8.102 0-5.329-4.32-9.649-9.649-9.649h-5.358" fill="none" stroke="#231f20" stroke-linecap="round" stroke-linejoin="round" stroke-miterlimit="10" stroke-width="2"/>
  </g>
  <g transform="matrix(.35278 0 0 -.35278 -4.5014 116.19)">
   <path d="m0 0v-10.825" fill="none" stroke="#231f20" stroke-linecap="round" stroke-linejoin="round" stroke-miterlimit="10" stroke-width="2"/>
  </g>
  <g transform="matrix(.35278 0 0 -.35278 -6.1988 117.17)">
   <path d="m0 0 9.375-5.413" fill="none" stroke="#231f20" stroke-linecap="round" stroke-linejoin="round" stroke-miterlimit="10" stroke-width="2"/>
  </g>
  <g transform="matrix(.35278 0 0 -.35278 -6.1988 119.13)">
   <path d="m0 0 9.375 5.413" fill="none" stroke="#231f20" stroke-linecap="round" stroke-linejoin="round" stroke-miterlimit="10" stroke-width="2"/>
  </g>
  <g transform="matrix(.35278 0 0 -.35278 -11.65 119.45)">
   <path d="m0 0v-10.826" fill="none" stroke="#231f20" stroke-linecap="round" stroke-linejoin="round" stroke-miterlimit="10" stroke-width="2"/>
  </g>
  <g transform="matrix(.35278 0 0 -.35278 -13.347 120.43)">
   <path d="m0 0 9.375-5.413" fill="none" stroke="#231f20" stroke-linecap="round" stroke-linejoin="round" stroke-miterlimit="10" stroke-width="2"/>
  </g>
  <g transform="matrix(.35278 0 0 -.35278 -13.347 122.39)">
   <path d="m0 0 9.375 5.413" fill="none" stroke="#231f20" stroke-linecap="round" stroke-linejoin="round" stroke-miterlimit="10" stroke-width="2"/>
  </g>
  <g transform="matrix(.35278 0 0 -.35278 -5.732 122.91)">
   <path d="m0 0v-8.568" fill="none" stroke="#231f20" stroke-linecap="round" stroke-linejoin="round" stroke-miterlimit="10" stroke-width="2"/>
  </g>
  <g transform="matrix(.35278 0 0 -.35278 -7.0756 123.68)">
   <path d="m0 0 7.42-4.284" fill="none" stroke="#231f20" stroke-linecap="round" stroke-linejoin="round" stroke-miterlimit="10" stroke-width="2"/>
  </g>
  <g transform="matrix(.35278 0 0 -.35278 -7.0756 125.24)">
   <path d="m0 0 7.42 4.284" fill="none" stroke="#231f20" stroke-linecap="round" stroke-linejoin="round" stroke-miterlimit="10" stroke-width="2"/>
  </g>
  <g transform="matrix(.35278 0 0 -.35278 -14.163 10.795)">
   <path d="m0 0h-7.955c-5.329 0-9.649 4.32-9.649 9.649s4.32 9.649 9.649 9.649h1.523c0.721 5.201 5.172 9.208 10.571 9.208 1.511 0 2.946-0.317 4.249-0.882 1.588 7.108 7.924 12.426 15.512 12.426 6.433 0 11.961-3.827 14.467-9.322 0.74 0.189 1.511 0.301 2.31 0.301 5.141 0 9.309-4.168 9.309-9.309 0-1.422-0.328-2.764-0.898-3.97 2.657-1.718 4.42-4.701 4.42-8.101 0-5.329-4.32-9.649-9.649-9.649h-10.384" fill="none" stroke="#231f20" stroke-linecap="round" stroke-linejoin="round" stroke-miterlimit="10" stroke-width="2"/>
  </g>
  <g transform="matrix(.35278 0 0 -.35278 -4.791 7.8926)">
   <path d="m0 0-6.353-14.661h10.425l-5.754-12.517" fill="none" stroke="#231f20" stroke-linecap="round" stroke-linejoin="round" stroke-miterlimit="10" stroke-width="2"/>
  </g>
  <g transform="matrix(.35278 0 0 -.35278 -10.586 8.5946)">
   <path d="m0 0-3.529-8.144h5.791l-5.158-11.22" fill="none" stroke="#231f20" stroke-linecap="round" stroke-linejoin="round" stroke-miterlimit="10" stroke-width="2"/>
  </g>
  <g transform="matrix(.35278 0 0 -.35278 -184.96 59.443)">
   <path d="m0 0c1.208 0.544 2.549 0.848 3.96 0.848h1.524c0.721 5.2 5.172 9.208 10.571 9.208 1.51 0 2.945-0.318 4.248-0.883 1.589 7.109 7.925 12.427 15.512 12.427 6.434 0 11.962-3.828 14.467-9.323 0.74 0.19 1.511 0.301 2.311 0.301 5.141 0 9.309-4.167 9.309-9.308 0-1.422-0.329-2.764-0.899-3.97 2.658-1.718 4.42-4.702 4.42-8.102 0-5.329-4.32-9.649-9.649-9.649h-24.416" fill="none" stroke="#231f20" stroke-linecap="round" stroke-linejoin="round" stroke-miterlimit="10" stroke-width="2"/>
  </g>
  <g transform="matrix(.35278 0 0 -.35278 -175.8 60.88)">
   <path d="m0 0h-32.389c-3.344 0-6.054 2.711-6.054 6.055 0 3.343 2.71 6.054 6.054 6.054" fill="none" stroke="#231f20" stroke-linecap="round" stroke-linejoin="round" stroke-miterlimit="10" stroke-width="2"/>
  </g>
  <g transform="matrix(.35278 0 0 -.35278 -175.8 65.951)">
   <path d="m0 0h-27.702c-2.86 0-5.178-2.318-5.178-5.178s2.318-5.178 5.178-5.178" fill="none" stroke="#231f20" stroke-linecap="round" stroke-linejoin="round" stroke-miterlimit="10" stroke-width="2"/>
  </g>
  <g transform="matrix(.35278 0 0 -.35278 -179.19 62.595)">
   <path d="m0 0h-38.606" fill="none" stroke="#231f20" stroke-linecap="round" stroke-linejoin="round" stroke-miterlimit="10" stroke-width="2"/>
  </g>
  <g transform="matrix(.35278 0 0 -.35278 -175.8 62.595)">
   <path d="m0 0h-3.91" fill="none" stroke="#231f20" stroke-linecap="round" stroke-linejoin="round" stroke-miterlimit="10" stroke-width="2"/>
  </g>
  <g transform="matrix(.35278 0 0 -.35278 -184.04 64.309)">
   <path d="m0 0h-2.62" fill="none" stroke="#231f20" stroke-linecap="round" stroke-linejoin="round" stroke-miterlimit="10" stroke-width="2"/>
  </g>
  <g transform="matrix(.35278 0 0 -.35278 -175.8 64.309)">
   <path d="m0 0h-19.222" fill="none" stroke="#231f20" stroke-linecap="round" stroke-linejoin="round" stroke-miterlimit="10" stroke-width="2"/>
  </g>
  <g transform="matrix(.35278 0 0 -.35278 -114.48 54.731)">
   <path d="m0 0h-1.299c-0.615 4.435-4.411 7.854-9.016 7.854-1.289 0-2.513-0.271-3.624-0.753-1.354 6.063-6.758 10.598-13.23 10.598-5.487 0-10.202-3.264-12.338-7.951-0.632 0.162-1.29 0.257-1.972 0.257-4.384 0-7.938-3.555-7.938-7.94 0-1.212 0.279-2.357 0.765-3.385-2.266-1.466-3.769-4.01-3.769-6.91 0-4.545 3.684-8.229 8.229-8.229h44.192c4.545 0 8.229 3.684 8.229 8.229s-3.684 8.23-8.229 8.23" fill="#fff"/>
   <path d="m0 0h-1.299c-0.615 4.435-4.411 7.854-9.016 7.854-1.289 0-2.513-0.271-3.624-0.753-1.354 6.063-6.758 10.598-13.23 10.598-5.487 0-10.202-3.264-12.338-7.951-0.632 0.162-1.29 0.257-1.972 0.257-4.384 0-7.938-3.555-7.938-7.94 0-1.212 0.279-2.357 0.765-3.385-2.266-1.466-3.769-4.01-3.769-6.91 0-4.545 3.684-8.229 8.229-8.229h44.192c4.545 0 8.229 3.684 8.229 8.229s-3.684 8.23-8.229 8.23z" fill="none" stroke="#231f20" stroke-linecap="round" stroke-linejoin="round" stroke-miterlimit="10" stroke-width="2"/>
  </g>
  <g transform="matrix(.35278 0 0 -.35278 -127.45 56.464)">
   <path d="m0 0h1.524c0.721 5.201 5.172 9.208 10.571 9.208 1.51 0 2.946-0.317 4.248-0.882 1.588 7.109 7.925 12.426 15.512 12.426 6.434 0 11.961-3.827 14.467-9.322 0.74 0.189 1.511 0.3 2.311 0.3 5.141 0 9.308-4.167 9.308-9.308 0-1.422-0.328-2.764-0.898-3.969 2.657-1.719 4.42-4.702 4.42-8.102 0-5.329-4.32-9.649-9.649-9.649h-51.814c-5.329 0-9.649 4.32-9.649 9.649s4.32 9.649 9.649 9.649" fill="#fff"/>
   <path d="m0 0h1.524c0.721 5.201 5.172 9.208 10.571 9.208 1.51 0 2.946-0.317 4.248-0.882 1.588 7.109 7.925 12.426 15.512 12.426 6.434 0 11.961-3.827 14.467-9.322 0.74 0.189 1.511 0.3 2.311 0.3 5.141 0 9.308-4.167 9.308-9.308 0-1.422-0.328-2.764-0.898-3.969 2.657-1.719 4.42-4.702 4.42-8.102 0-5.329-4.32-9.649-9.649-9.649h-51.814c-5.329 0-9.649 4.32-9.649 9.649s4.32 9.649 9.649 9.649z" fill="none" stroke="#231f20" stroke-linecap="round" stroke-linejoin="round" stroke-miterlimit="10" stroke-width="2"/>
  </g>
  <g transform="matrix(.35278 0 0 -.35278 -127.77 67.55)">
   <path d="m0 0 3.311 7.639" fill="none" stroke="#231f20" stroke-linecap="round" stroke-linejoin="round" stroke-miterlimit="10" stroke-width="2"/>
  </g>
  <g transform="matrix(.35278 0 0 -.35278 -121.94 67.55)">
   <path d="m0 0 3.311 7.639" fill="none" stroke="#231f20" stroke-linecap="round" stroke-linejoin="round" stroke-miterlimit="10" stroke-width="2"/>
  </g>
  <g transform="matrix(.35278 0 0 -.35278 -116.12 67.55)">
   <path d="m0 0 3.31 7.639" fill="none" stroke="#231f20" stroke-linecap="round" stroke-linejoin="round" stroke-miterlimit="10" stroke-width="2"/>
  </g>
  <g transform="matrix(.35278 0 0 -.35278 -110.3 67.55)">
   <path d="m0 0 3.311 7.639" fill="none" stroke="#231f20" stroke-linecap="round" stroke-linejoin="round" stroke-miterlimit="10" stroke-width="2"/>
  </g>
  <g transform="matrix(.35278 0 0 -.35278 -130.1 72.94)">
   <path d="m0 0 3.31 7.639" fill="none" stroke="#231f20" stroke-linecap="round" stroke-linejoin="round" stroke-miterlimit="10" stroke-width="2"/>
  </g>
  <g transform="matrix(.35278 0 0 -.35278 -133.48 67.55)">
   <path d="m0 0 3.311 7.639" fill="none" stroke="#231f20" stroke-linecap="round" stroke-linejoin="round" stroke-miterlimit="10" stroke-width="2"/>
  </g>
  <g transform="matrix(.35278 0 0 -.35278 -135.81 72.94)">
   <path d="m0 0 3.311 7.639" fill="none" stroke="#231f20" stroke-linecap="round" stroke-linejoin="round" stroke-miterlimit="10" stroke-width="2"/>
  </g>
  <g transform="matrix(.35278 0 0 -.35278 -124.27 72.94)">
   <path d="m0 0 3.311 7.639" fill="none" stroke="#231f20" stroke-linecap="round" stroke-linejoin="round" stroke-miterlimit="10" stroke-width="2"/>
  </g>
  <g transform="matrix(.35278 0 0 -.35278 -118.45 72.94)">
   <path d="m0 0 3.311 7.639" fill="none" stroke="#231f20" stroke-linecap="round" stroke-linejoin="round" stroke-miterlimit="10" stroke-width="2"/>
  </g>
  <g transform="matrix(.35278 0 0 -.35278 -112.62 72.94)">
   <path d="m0 0 3.31 7.639" fill="none" stroke="#231f20" stroke-linecap="round" stroke-linejoin="round" stroke-miterlimit="10" stroke-width="2"/>
  </g>
  <g transform="matrix(.35278 0 0 -.35278 -72.83 56.075)">
   <path d="m0 0c1.208 0.545 2.549 0.848 3.96 0.848h1.524c0.721 5.2 5.172 9.208 10.571 9.208 1.51 0 2.946-0.317 4.249-0.883 1.588 7.109 7.924 12.427 15.511 12.427 6.434 0 11.962-3.827 14.467-9.322 0.74 0.189 1.512 0.301 2.311 0.301 5.141 0 9.309-4.168 9.309-9.309 0-1.422-0.328-2.764-0.898-3.969 2.657-1.719 4.42-4.702 4.42-8.102 0-5.329-4.32-9.649-9.65-9.649h-24.415" fill="none" stroke="#231f20" stroke-linecap="round" stroke-linejoin="round" stroke-miterlimit="10" stroke-width="2"/>
  </g>
  <g transform="matrix(.35278 0 0 -.35278 -63.674 57.512)">
   <path d="m0 0h-32.389c-3.344 0-6.054 2.71-6.054 6.054v1e-3c0 3.343 2.71 6.054 6.054 6.054" fill="none" stroke="#231f20" stroke-linecap="round" stroke-linejoin="round" stroke-miterlimit="10" stroke-width="2"/>
  </g>
  <g transform="matrix(.35278 0 0 -.35278 -63.674 62.582)">
   <path d="m0 0h-27.702c-2.86 0-5.178-2.318-5.178-5.178s2.318-5.178 5.178-5.178" fill="none" stroke="#231f20" stroke-linecap="round" stroke-linejoin="round" stroke-miterlimit="10" stroke-width="2"/>
  </g>
  <g transform="matrix(.35278 0 0 -.35278 -67.064 59.226)">
   <path d="m0 0h-38.606" fill="none" stroke="#231f20" stroke-linecap="round" stroke-linejoin="round" stroke-miterlimit="10" stroke-width="2"/>
  </g>
  <g transform="matrix(.35278 0 0 -.35278 -63.674 59.226)">
   <path d="m0 0h-3.91" fill="none" stroke="#231f20" stroke-linecap="round" stroke-linejoin="round" stroke-miterlimit="10" stroke-width="2"/>
  </g>
  <g transform="matrix(.35278 0 0 -.35278 -71.906 60.94)">
   <path d="m0 0h-2.62" fill="none" stroke="#231f20" stroke-linecap="round" stroke-linejoin="round" stroke-miterlimit="10" stroke-width="2"/>
  </g>
  <g transform="matrix(.35278 0 0 -.35278 -63.674 60.94)">
   <path d="m0 0h-19.222" fill="none" stroke="#231f20" stroke-linecap="round" stroke-linejoin="round" stroke-miterlimit="10" stroke-width="2"/>
  </g>
  <g transform="matrix(.35278 0 0 -.35278 -68.389 67.583)">
   <path d="m0 0 3.31 7.639" fill="none" stroke="#231f20" stroke-linecap="round" stroke-linejoin="round" stroke-miterlimit="10" stroke-width="2"/>
  </g>
  <g transform="matrix(.35278 0 0 -.35278 -62.565 67.583)">
   <path d="m0 0 3.311 7.639" fill="none" stroke="#231f20" stroke-linecap="round" stroke-linejoin="round" stroke-miterlimit="10" stroke-width="2"/>
  </g>
  <g transform="matrix(.35278 0 0 -.35278 -56.742 67.583)">
   <path d="m0 0 3.311 7.639" fill="none" stroke="#231f20" stroke-linecap="round" stroke-linejoin="round" stroke-miterlimit="10" stroke-width="2"/>
  </g>
  <g transform="matrix(.35278 0 0 -.35278 -70.725 72.973)">
   <path d="m0 0 3.311 7.639" fill="none" stroke="#231f20" stroke-linecap="round" stroke-linejoin="round" stroke-miterlimit="10" stroke-width="2"/>
  </g>
  <g transform="matrix(.35278 0 0 -.35278 -64.901 72.973)">
   <path d="m0 0 3.31 7.639" fill="none" stroke="#231f20" stroke-linecap="round" stroke-linejoin="round" stroke-miterlimit="10" stroke-width="2"/>
  </g>
  <g transform="matrix(.35278 0 0 -.35278 -59.077 72.973)">
   <path d="m0 0 3.311 7.639" fill="none" stroke="#231f20" stroke-linecap="round" stroke-linejoin="round" stroke-miterlimit="10" stroke-width="2"/>
  </g>
  <g transform="matrix(.35278 0 0 -.35278 -14.089 64.618)">
   <path d="m0 0h-7.955c-5.329 0-9.649 4.32-9.649 9.649s4.32 9.649 9.649 9.649h1.523c0.721 5.201 5.172 9.208 10.571 9.208 1.511 0 2.946-0.317 4.249-0.882 1.588 7.108 7.924 12.426 15.512 12.426 6.433 0 11.961-3.827 14.467-9.322 0.74 0.189 1.511 0.301 2.31 0.301 5.141 0 9.309-4.168 9.309-9.309 0-1.422-0.328-2.764-0.898-3.969 2.657-1.719 4.42-4.702 4.42-8.102 0-5.329-4.32-9.649-9.649-9.649h-10.384" fill="none" stroke="#231f20" stroke-linecap="round" stroke-linejoin="round" stroke-miterlimit="10" stroke-width="2"/>
  </g>
  <g transform="matrix(.35278 0 0 -.35278 -4.9224 58.061)">
   <path d="m0 0-6.353-14.661h10.425l-5.754-12.517" fill="none" stroke="#231f20" stroke-linecap="round" stroke-linejoin="round" stroke-miterlimit="10" stroke-width="2"/>
  </g>
  <g transform="matrix(.35278 0 0 -.35278 -10.562 61.202)">
   <path d="m0 0-3.529-8.144h5.791l-5.158-11.22" fill="none" stroke="#231f20" stroke-linecap="round" stroke-linejoin="round" stroke-miterlimit="10" stroke-width="2"/>
  </g>
  <g transform="matrix(.35278 0 0 -.35278 -20.448 70.939)">
   <path d="m0 0 3.311 7.639" fill="none" stroke="#231f20" stroke-linecap="round" stroke-linejoin="round" stroke-miterlimit="10" stroke-width="2"/>
  </g>
  <g transform="matrix(.35278 0 0 -.35278 -14.624 70.939)">
   <path d="m0 0 3.31 7.639" fill="none" stroke="#231f20" stroke-linecap="round" stroke-linejoin="round" stroke-miterlimit="10" stroke-width="2"/>
  </g>
  <g transform="matrix(.35278 0 0 -.35278 -8.8009 70.939)">
   <path d="m0 0 3.311 7.639" fill="none" stroke="#231f20" stroke-linecap="round" stroke-linejoin="round" stroke-miterlimit="10" stroke-width="2"/>
  </g>
  <g transform="matrix(.35278 0 0 -.35278 -2.9773 70.939)">
   <path d="m0 0 3.311 7.639" fill="none" stroke="#231f20" stroke-linecap="round" stroke-linejoin="round" stroke-miterlimit="10" stroke-width="2"/>
  </g>
  <g transform="matrix(.35278 0 0 -.35278 2.8464 70.939)">
   <path d="m0 0 3.31 7.639" fill="none" stroke="#231f20" stroke-linecap="round" stroke-linejoin="round" stroke-miterlimit="10" stroke-width="2"/>
  </g>
  <g transform="matrix(.35278 0 0 -.35278 -232.95 114.66)">
   <path d="m0 0c0-9.79-7.936-17.726-17.726-17.726-9.789 0-17.725 7.936-17.725 17.726 0 9.789 7.936 17.725 17.725 17.725 9.79 0 17.726-7.936 17.726-17.725" fill="#fff"/>
   <path d="m0 0c0-9.79-7.936-17.726-17.726-17.726-9.789 0-17.725 7.936-17.725 17.726 0 9.789 7.936 17.725 17.725 17.725 9.79 0 17.726-7.936 17.726-17.725z" fill="none" stroke="#231f20" stroke-linecap="round" stroke-linejoin="round" stroke-miterlimit="10" stroke-width="2"/>
  </g>
  <g transform="matrix(.35278 0 0 -.35278 -239.2 103.55)">
   <path d="m0 0v-11.167" fill="none" stroke="#231f20" stroke-linecap="round" stroke-linejoin="round" stroke-miterlimit="10" stroke-width="2"/>
  </g>
  <g transform="matrix(.35278 0 0 -.35278 -248.82 109.1)">
   <path d="m0 0 9.671-5.583" fill="none" stroke="#231f20" stroke-linecap="round" stroke-linejoin="round" stroke-miterlimit="10" stroke-width="2"/>
  </g>
  <g transform="matrix(.35278 0 0 -.35278 -248.82 120.21)">
   <path d="m0 0 9.671 5.583" fill="none" stroke="#231f20" stroke-linecap="round" stroke-linejoin="round" stroke-miterlimit="10" stroke-width="2"/>
  </g>
  <g transform="matrix(.35278 0 0 -.35278 -229.58 109.1)">
   <path d="m0 0-9.671-5.583" fill="none" stroke="#231f20" stroke-linecap="round" stroke-linejoin="round" stroke-miterlimit="10" stroke-width="2"/>
  </g>
  <g transform="matrix(.35278 0 0 -.35278 -244.07 106.23)">
   <path d="m0 0 4.891-8.471" fill="none" stroke="#231f20" stroke-linecap="round" stroke-linejoin="round" stroke-miterlimit="10" stroke-width="2"/>
  </g>
  <g transform="matrix(.35278 0 0 -.35278 -248.93 114.66)">
   <path d="m0 0h9.782" fill="none" stroke="#231f20" stroke-linecap="round" stroke-linejoin="round" stroke-miterlimit="10" stroke-width="2"/>
  </g>
  <g transform="matrix(.35278 0 0 -.35278 -229.47 114.66)">
   <path d="m0 0h-9.782" fill="none" stroke="#231f20" stroke-linecap="round" stroke-linejoin="round" stroke-miterlimit="10" stroke-width="2"/>
  </g>
  <g transform="matrix(.35278 0 0 -.35278 -234.34 106.23)">
   <path d="m0 0-4.891-8.471" fill="none" stroke="#231f20" stroke-linecap="round" stroke-linejoin="round" stroke-miterlimit="10" stroke-width="2"/>
  </g>
  <g transform="matrix(.35278 0 0 -.35278 -224.12 126.36)">
   <path d="m0 0h-51.814c-5.329 0-9.649 4.32-9.649 9.649s4.32 9.649 9.649 9.649h1.523c0.721 5.201 5.172 9.208 10.571 9.208 1.511 0 2.946-0.317 4.249-0.882 1.588 7.108 7.924 12.426 15.512 12.426 6.433 0 11.961-3.827 14.467-9.322 0.74 0.189 1.511 0.301 2.31 0.301 5.141 0 9.309-4.168 9.309-9.309" fill="#fff" stroke="#231f20" stroke-linecap="round" stroke-linejoin="round" stroke-miterlimit="10" stroke-width="2"/>
  </g>
  <g transform="matrix(.35278 0 0 -.35278 -229.25 120.14)">
   <path d="m0 0h32.758" fill="none" stroke="#231f20" stroke-linecap="round" stroke-linejoin="round" stroke-miterlimit="10" stroke-width="2"/>
  </g>
  <g transform="matrix(.35278 0 0 -.35278 -225.1 122.51)">
   <path d="m0 0h23.939" fill="none" stroke="#231f20" stroke-linecap="round" stroke-linejoin="round" stroke-miterlimit="10" stroke-width="2"/>
  </g>
  <g transform="matrix(.35278 0 0 -.35278 -228.21 122.51)">
   <path d="m0 0h3.41" fill="none" stroke="#231f20" stroke-linecap="round" stroke-linejoin="round" stroke-miterlimit="10" stroke-width="2"/>
  </g>
  <g transform="matrix(.35278 0 0 -.35278 -219.21 124.6)">
   <path d="m0 0h3.804" fill="none" stroke="#231f20" stroke-linecap="round" stroke-linejoin="round" stroke-miterlimit="10" stroke-width="2"/>
  </g>
  <g transform="matrix(.35278 0 0 -.35278 -229.43 124.6)">
   <path d="m0 0h24.878" fill="none" stroke="#231f20" stroke-linecap="round" stroke-linejoin="round" stroke-miterlimit="10" stroke-width="2"/>
  </g>
  <g transform="matrix(.35278 0 0 -.35278 -184.55 166.5)">
   <path d="m0 0c-2.494 7.978 0.391 16.058 6.46 18.657-2.18 0.196-4.434-0.022-6.654-0.717-9.057-2.831-14.104-12.468-11.273-21.524 2.831-9.058 12.468-14.104 21.526-11.273 2.219 0.694 4.196 1.798 5.878 3.201-6.47-1.32-13.443 3.678-15.937 11.656z" fill="none" stroke="#231f20" stroke-linecap="round" stroke-linejoin="round" stroke-miterlimit="10" stroke-width="2"/>
  </g>
  <g transform="matrix(.35278 0 0 -.35278 -170.24 175.43)">
   <path d="m0 0h-51.814c-5.329 0-9.649 4.32-9.649 9.649 0 5.33 4.32 9.649 9.649 9.649h1.523c0.721 5.201 5.172 9.209 10.571 9.209 1.511 0 2.946-0.318 4.249-0.883 1.588 7.109 7.924 12.426 15.512 12.426 6.433 0 11.961-3.827 14.467-9.322 0.74 0.189 1.511 0.301 2.31 0.301 5.141 0 9.309-4.168 9.309-9.309" fill="#fff" stroke="#231f20" stroke-linecap="round" stroke-linejoin="round" stroke-miterlimit="10" stroke-width="2"/>
  </g>
  <g transform="matrix(.35278 0 0 -.35278 -175.38 169.21)">
   <path d="m0 0h32.758" fill="none" stroke="#231f20" stroke-linecap="round" stroke-linejoin="round" stroke-miterlimit="10" stroke-width="2"/>
  </g>
  <g transform="matrix(.35278 0 0 -.35278 -171.22 171.58)">
   <path d="m0 0h23.939" fill="none" stroke="#231f20" stroke-linecap="round" stroke-linejoin="round" stroke-miterlimit="10" stroke-width="2"/>
  </g>
  <g transform="matrix(.35278 0 0 -.35278 -174.33 171.58)">
   <path d="m0 0h3.41" fill="none" stroke="#231f20" stroke-linecap="round" stroke-linejoin="round" stroke-miterlimit="10" stroke-width="2"/>
  </g>
  <g transform="matrix(.35278 0 0 -.35278 -165.34 173.67)">
   <path d="m0 0h3.804" fill="none" stroke="#231f20" stroke-linecap="round" stroke-linejoin="round" stroke-miterlimit="10" stroke-width="2"/>
  </g>
  <g transform="matrix(.35278 0 0 -.35278 -175.55 173.67)">
   <path d="m0 0h24.878" fill="none" stroke="#231f20" stroke-linecap="round" stroke-linejoin="round" stroke-miterlimit="10" stroke-width="2"/>
  </g>
  <g transform="matrix(.35278 0 0 -.35278 -175.47 112.53)">
   <path d="m0 0c0-9.79-7.936-17.726-17.725-17.726-9.79 0-17.726 7.936-17.726 17.726s7.936 17.725 17.726 17.725c9.789 0 17.725-7.935 17.725-17.725" fill="#fff"/>
   <path d="m0 0c0-9.79-7.936-17.726-17.725-17.726-9.79 0-17.726 7.936-17.726 17.726s7.936 17.725 17.726 17.725c9.789 0 17.725-7.935 17.725-17.725z" fill="none" stroke="#231f20" stroke-linecap="round" stroke-linejoin="round" stroke-miterlimit="10" stroke-width="2"/>
  </g>
  <g transform="matrix(.35278 0 0 -.35278 -181.73 101.42)">
   <path d="m0 0v-11.167" fill="none" stroke="#231f20" stroke-linecap="round" stroke-linejoin="round" stroke-miterlimit="10" stroke-width="2"/>
  </g>
  <g transform="matrix(.35278 0 0 -.35278 -191.35 106.98)">
   <path d="m0 0 9.671-5.583" fill="none" stroke="#231f20" stroke-linecap="round" stroke-linejoin="round" stroke-miterlimit="10" stroke-width="2"/>
  </g>
  <g transform="matrix(.35278 0 0 -.35278 -191.35 118.09)">
   <path d="m0 0 9.671 5.583" fill="none" stroke="#231f20" stroke-linecap="round" stroke-linejoin="round" stroke-miterlimit="10" stroke-width="2"/>
  </g>
  <g transform="matrix(.35278 0 0 -.35278 -172.1 106.98)">
   <path d="m0 0-9.671-5.583" fill="none" stroke="#231f20" stroke-linecap="round" stroke-linejoin="round" stroke-miterlimit="10" stroke-width="2"/>
  </g>
  <g transform="matrix(.35278 0 0 -.35278 -186.59 104.1)">
   <path d="m0 0 4.891-8.471" fill="none" stroke="#231f20" stroke-linecap="round" stroke-linejoin="round" stroke-miterlimit="10" stroke-width="2"/>
  </g>
  <g transform="matrix(.35278 0 0 -.35278 -191.46 112.53)">
   <path d="m0 0h9.781" fill="none" stroke="#231f20" stroke-linecap="round" stroke-linejoin="round" stroke-miterlimit="10" stroke-width="2"/>
  </g>
  <g transform="matrix(.35278 0 0 -.35278 -171.99 112.53)">
   <path d="m0 0h-9.781" fill="none" stroke="#231f20" stroke-linecap="round" stroke-linejoin="round" stroke-miterlimit="10" stroke-width="2"/>
  </g>
  <g transform="matrix(.35278 0 0 -.35278 -176.86 104.1)">
   <path d="m0 0-4.891-8.471" fill="none" stroke="#231f20" stroke-linecap="round" stroke-linejoin="round" stroke-miterlimit="10" stroke-width="2"/>
  </g>
  <g transform="matrix(.35278 0 0 -.35278 -184.92 117.42)">
   <path d="m0 0h1.523c0.721 5.201 5.173 9.208 10.571 9.208 1.511 0 2.947-0.317 4.249-0.882 1.588 7.109 7.924 12.426 15.512 12.426 6.434 0 11.961-3.827 14.467-9.322 0.74 0.189 1.511 0.301 2.311 0.301 5.141 0 9.308-4.168 9.308-9.309 0-1.422-0.328-2.764-0.898-3.969 2.657-1.719 4.42-4.702 4.42-8.102 0-5.329-4.32-9.649-9.649-9.649h-51.814c-5.329 0-9.649 4.32-9.649 9.649s4.32 9.649 9.649 9.649" fill="#fff"/>
   <path d="m0 0h1.523c0.721 5.201 5.173 9.208 10.571 9.208 1.511 0 2.947-0.317 4.249-0.882 1.588 7.109 7.924 12.426 15.512 12.426 6.434 0 11.961-3.827 14.467-9.322 0.74 0.189 1.511 0.301 2.311 0.301 5.141 0 9.308-4.168 9.308-9.309 0-1.422-0.328-2.764-0.898-3.969 2.657-1.719 4.42-4.702 4.42-8.102 0-5.329-4.32-9.649-9.649-9.649h-51.814c-5.329 0-9.649 4.32-9.649 9.649s4.32 9.649 9.649 9.649z" fill="none" stroke="#231f20" stroke-linecap="round" stroke-linejoin="round" stroke-miterlimit="10" stroke-width="2"/>
  </g>
  <g transform="matrix(.35278 0 0 -.35278 -185.32 128.48)">
   <path d="m0 0 3.311 7.639" fill="none" stroke="#231f20" stroke-linecap="round" stroke-linejoin="round" stroke-miterlimit="10" stroke-width="2"/>
  </g>
  <g transform="matrix(.35278 0 0 -.35278 -179.5 128.48)">
   <path d="m0 0 3.311 7.639" fill="none" stroke="#231f20" stroke-linecap="round" stroke-linejoin="round" stroke-miterlimit="10" stroke-width="2"/>
  </g>
  <g transform="matrix(.35278 0 0 -.35278 -173.67 128.48)">
   <path d="m0 0 3.311 7.639" fill="none" stroke="#231f20" stroke-linecap="round" stroke-linejoin="round" stroke-miterlimit="10" stroke-width="2"/>
  </g>
  <g transform="matrix(.35278 0 0 -.35278 -167.85 128.48)">
   <path d="m0 0 3.311 7.639" fill="none" stroke="#231f20" stroke-linecap="round" stroke-linejoin="round" stroke-miterlimit="10" stroke-width="2"/>
  </g>
  <g transform="matrix(.35278 0 0 -.35278 -120.73 101.8)">
   <path d="m0 0v-74.549" fill="none" stroke="#231f20" stroke-linecap="round" stroke-linejoin="round" stroke-miterlimit="10" stroke-width="2"/>
  </g>
  <g transform="matrix(.35278 0 0 -.35278 -132.42 108.55)">
   <path d="m0 0 64.561-37.274" fill="none" stroke="#231f20" stroke-linecap="round" stroke-linejoin="round" stroke-miterlimit="10" stroke-width="2"/>
  </g>
  <g transform="matrix(.35278 0 0 -.35278 -132.42 122.05)">
   <path d="m0 0 64.561 37.274" fill="none" stroke="#231f20" stroke-linecap="round" stroke-linejoin="round" stroke-miterlimit="10" stroke-width="2"/>
  </g>
  <g transform="matrix(.35278 0 0 -.35278 -124.35 104.02)">
   <path d="m0 0 10.248-10.914" fill="none" stroke="#231f20" stroke-linecap="round" stroke-linejoin="round" stroke-miterlimit="10" stroke-width="2"/>
  </g>
  <g transform="matrix(.35278 0 0 -.35278 -117.12 104.02)">
   <path d="m0 0-10.247-10.914" fill="none" stroke="#231f20" stroke-linecap="round" stroke-linejoin="round" stroke-miterlimit="10" stroke-width="2"/>
  </g>
  <g transform="matrix(.35278 0 0 -.35278 -132.31 112.79)">
   <path d="m0 0 14.576 3.417" fill="none" stroke="#231f20" stroke-linecap="round" stroke-linejoin="round" stroke-miterlimit="10" stroke-width="2"/>
  </g>
  <g transform="matrix(.35278 0 0 -.35278 -128.7 106.53)">
   <path d="m0 0 4.328-14.332" fill="none" stroke="#231f20" stroke-linecap="round" stroke-linejoin="round" stroke-miterlimit="10" stroke-width="2"/>
  </g>
  <g transform="matrix(.35278 0 0 -.35278 -128.7 124.07)">
   <path d="m0 0 4.328 14.332" fill="none" stroke="#231f20" stroke-linecap="round" stroke-linejoin="round" stroke-miterlimit="10" stroke-width="2"/>
  </g>
  <g transform="matrix(.35278 0 0 -.35278 -132.31 117.81)">
   <path d="m0 0 14.576-3.417" fill="none" stroke="#231f20" stroke-linecap="round" stroke-linejoin="round" stroke-miterlimit="10" stroke-width="2"/>
  </g>
  <g transform="matrix(.35278 0 0 -.35278 -117.12 126.58)">
   <path d="m0 0-10.247 10.914" fill="none" stroke="#231f20" stroke-linecap="round" stroke-linejoin="round" stroke-miterlimit="10" stroke-width="2"/>
  </g>
  <g transform="matrix(.35278 0 0 -.35278 -124.35 126.58)">
   <path d="m0 0 10.248 10.914" fill="none" stroke="#231f20" stroke-linecap="round" stroke-linejoin="round" stroke-miterlimit="10" stroke-width="2"/>
  </g>
  <g transform="matrix(.35278 0 0 -.35278 -109.15 117.81)">
   <path d="m0 0-14.576-3.417" fill="none" stroke="#231f20" stroke-linecap="round" stroke-linejoin="round" stroke-miterlimit="10" stroke-width="2"/>
  </g>
  <g transform="matrix(.35278 0 0 -.35278 -112.77 124.07)">
   <path d="m0 0-4.328 14.332" fill="none" stroke="#231f20" stroke-linecap="round" stroke-linejoin="round" stroke-miterlimit="10" stroke-width="2"/>
  </g>
  <g transform="matrix(.35278 0 0 -.35278 -112.77 106.53)">
   <path d="m0 0-4.328-14.332" fill="none" stroke="#231f20" stroke-linecap="round" stroke-linejoin="round" stroke-miterlimit="10" stroke-width="2"/>
  </g>
  <g transform="matrix(.35278 0 0 -.35278 -109.15 112.79)">
   <path d="m0 0-14.576 3.417" fill="none" stroke="#231f20" stroke-linecap="round" stroke-linejoin="round" stroke-miterlimit="10" stroke-width="2"/>
  </g>
  <g transform="matrix(.35278 0 0 -.35278 -126.22 112.13)">
   <path d="m0 0v0c6.583-0.716 12.872 2.915 15.544 8.974 2.671-6.059 8.96-9.69 15.543-8.974v0c-3.912-5.343-3.912-12.604 0-17.948-6.583 0.716-12.872-2.915-15.543-8.974-2.672 6.059-8.961 9.69-15.544 8.974 3.912 5.344 3.912 12.605 0 17.948z" fill="none" stroke="#231f20" stroke-linecap="round" stroke-linejoin="round" stroke-miterlimit="10" stroke-width="2"/>
  </g>
  <g transform="matrix(.35278 0 0 -.35278 -71.263 120.19)">
   <path d="m0 0h-8.767c-5.329 0-9.649 4.32-9.649 9.649s4.32 9.649 9.649 9.649h1.523c0.721 5.201 5.172 9.208 10.571 9.208 1.511 0 2.946-0.317 4.249-0.882 1.588 7.108 7.924 12.426 15.512 12.426 6.433 0 11.961-3.827 14.467-9.322 0.74 0.189 1.511 0.301 2.31 0.301 5.141 0 9.309-4.168 9.309-9.309 0-1.422-0.328-2.764-0.898-3.969 2.657-1.719 4.42-4.702 4.42-8.102 0-5.329-4.321-9.649-9.649-9.649h-19.047" fill="#fff" stroke="#231f20" stroke-linecap="round" stroke-linejoin="round" stroke-miterlimit="10" stroke-width="2"/>
  </g>
  <g transform="matrix(.35278 0 0 -.35278 -60.375 114.9)">
   <path d="m0 0-3.577 5.714-3.577-5.714c-1.76-2.811 0.261-6.46 3.577-6.46s5.337 3.649 3.577 6.46" fill="#fff"/>
   <path d="m0 0-3.577 5.714-3.577-5.714c-1.76-2.811 0.261-6.46 3.577-6.46s5.337 3.649 3.577 6.46z" fill="none" stroke="#231f20" stroke-linecap="round" stroke-linejoin="round" stroke-miterlimit="10" stroke-width="2"/>
  </g>
  <g transform="matrix(.35278 0 0 -.35278 -65.009 119.96)">
   <path d="m0 0-6.095 9.736-6.095-9.736c-2.998-4.789 0.445-11.006 6.095-11.006s9.093 6.217 6.095 11.006" fill="#fff"/>
   <path d="m0 0-6.095 9.736-6.095-9.736c-2.998-4.789 0.445-11.006 6.095-11.006s9.093 6.217 6.095 11.006z" fill="none" stroke="#231f20" stroke-linecap="round" stroke-linejoin="round" stroke-miterlimit="10" stroke-width="2"/>
  </g>
  <g transform="matrix(.35278 0 0 -.35278 -125.92 164.46)">
   <path d="m0 0c-2.494 7.978 0.391 16.058 6.46 18.657-2.18 0.196-4.434-0.022-6.654-0.716-9.057-2.831-14.104-12.468-11.273-21.525 2.832-9.057 12.468-14.104 21.526-11.273 2.219 0.694 4.196 1.798 5.878 3.202-6.47-1.321-13.443 3.677-15.937 11.655z" fill="none" stroke="#231f20" stroke-linecap="round" stroke-linejoin="round" stroke-miterlimit="10" stroke-width="2"/>
  </g>
  <g transform="matrix(.35278 0 0 -.35278 -126.84 173.82)">
   <path d="m0 0h-8.768c-5.328 0-9.649 4.32-9.649 9.649s4.321 9.649 9.649 9.649h1.524c0.721 5.201 5.172 9.208 10.571 9.208 1.51 0 2.946-0.317 4.249-0.882 1.588 7.108 7.924 12.426 15.512 12.426 6.433 0 11.961-3.827 14.466-9.322 0.74 0.189 1.512 0.301 2.311 0.301 5.141 0 9.309-4.168 9.309-9.309 0-1.422-0.328-2.764-0.898-3.969 2.657-1.719 4.42-4.702 4.42-8.102 0-5.329-4.321-9.649-9.65-9.649h-19.046" fill="#fff" stroke="#231f20" stroke-linecap="round" stroke-linejoin="round" stroke-miterlimit="10" stroke-width="2"/>
  </g>
  <g transform="matrix(.35278 0 0 -.35278 -115.95 168.54)">
   <path d="m0 0-3.577 5.714-3.577-5.714c-1.76-2.811 0.26-6.46 3.577-6.46 3.316 0 5.337 3.649 3.577 6.46" fill="#fff"/>
   <path d="m0 0-3.577 5.714-3.577-5.714c-1.76-2.811 0.26-6.46 3.577-6.46 3.316 0 5.337 3.649 3.577 6.46z" fill="none" stroke="#231f20" stroke-linecap="round" stroke-linejoin="round" stroke-miterlimit="10" stroke-width="2"/>
  </g>
  <g transform="matrix(.35278 0 0 -.35278 -120.58 173.6)">
   <path d="m0 0-6.095 9.736-6.094-9.736c-2.999-4.789 0.444-11.006 6.094-11.006s9.093 6.217 6.095 11.006" fill="#fff"/>
   <path d="m0 0-6.095 9.736-6.094-9.736c-2.999-4.789 0.444-11.006 6.094-11.006s9.093 6.217 6.095 11.006z" fill="none" stroke="#231f20" stroke-linecap="round" stroke-linejoin="round" stroke-miterlimit="10" stroke-width="2"/>
  </g>
  <g transform="matrix(.35278 0 0 -.35278 -70.349 162.37)">
   <path d="m0 0c-2.494 7.978 0.391 16.058 6.461 18.657-2.181 0.196-4.435-0.023-6.655-0.717-9.056-2.831-14.104-12.468-11.272-21.525 2.831-9.057 12.468-14.103 21.525-11.272 2.219 0.693 4.196 1.798 5.878 3.201-6.47-1.32-13.443 3.678-15.937 11.656z" fill="none" stroke="#231f20" stroke-linecap="round" stroke-linejoin="round" stroke-miterlimit="10" stroke-width="2"/>
  </g>
  <g transform="matrix(.35278 0 0 -.35278 -66.051 171.73)">
   <path d="m0 0h-23.542c-5.329 0-9.648 4.32-9.648 9.649s4.319 9.649 9.648 9.649h1.524c0.721 5.201 5.172 9.209 10.571 9.209 1.51 0 2.946-0.318 4.248-0.883 1.589 7.108 7.925 12.426 15.512 12.426 6.434 0 11.962-3.827 14.467-9.322 0.741 0.189 1.512 0.301 2.311 0.301 5.141 0 9.309-4.168 9.309-9.309 0-1.422-0.329-2.763-0.899-3.969 2.658-1.719 4.42-4.702 4.42-8.102 0-5.329-4.32-9.649-9.649-9.649h-5.358" fill="#fff" stroke="#231f20" stroke-linecap="round" stroke-linejoin="round" stroke-miterlimit="10" stroke-width="2"/>
  </g>
  <g transform="matrix(.35278 0 0 -.35278 -61.888 169.82)">
   <path d="m0 0v-10.825" fill="none" stroke="#231f20" stroke-linecap="round" stroke-linejoin="round" stroke-miterlimit="10" stroke-width="2"/>
  </g>
  <g transform="matrix(.35278 0 0 -.35278 -63.586 170.8)">
   <path d="m0 0 9.375-5.413" fill="none" stroke="#231f20" stroke-linecap="round" stroke-linejoin="round" stroke-miterlimit="10" stroke-width="2"/>
  </g>
  <g transform="matrix(.35278 0 0 -.35278 -63.586 172.76)">
   <path d="m0 0 9.375 5.413" fill="none" stroke="#231f20" stroke-linecap="round" stroke-linejoin="round" stroke-miterlimit="10" stroke-width="2"/>
  </g>
  <g transform="matrix(.35278 0 0 -.35278 -69.037 173.08)">
   <path d="m0 0v-10.826" fill="none" stroke="#231f20" stroke-linecap="round" stroke-linejoin="round" stroke-miterlimit="10" stroke-width="2"/>
  </g>
  <g transform="matrix(.35278 0 0 -.35278 -70.734 174.06)">
   <path d="m0 0 9.375-5.413" fill="none" stroke="#231f20" stroke-linecap="round" stroke-linejoin="round" stroke-miterlimit="10" stroke-width="2"/>
  </g>
  <g transform="matrix(.35278 0 0 -.35278 -70.734 176.02)">
   <path d="m0 0 9.375 5.413" fill="none" stroke="#231f20" stroke-linecap="round" stroke-linejoin="round" stroke-miterlimit="10" stroke-width="2"/>
  </g>
  <g transform="matrix(.35278 0 0 -.35278 -63.119 176.54)">
   <path d="m0 0v-8.568" fill="none" stroke="#231f20" stroke-linecap="round" stroke-linejoin="round" stroke-miterlimit="10" stroke-width="2"/>
  </g>
  <g transform="matrix(.35278 0 0 -.35278 -64.462 177.32)">
   <path d="m0 0 7.42-4.284" fill="none" stroke="#231f20" stroke-linecap="round" stroke-linejoin="round" stroke-miterlimit="10" stroke-width="2"/>
  </g>
  <g transform="matrix(.35278 0 0 -.35278 -64.462 178.87)">
   <path d="m0 0 7.42 4.284" fill="none" stroke="#231f20" stroke-linecap="round" stroke-linejoin="round" stroke-miterlimit="10" stroke-width="2"/>
  </g>
  <g transform="matrix(.35278 0 0 -.35278 -64.203 -4.0055)">
   <path d="m0 0c-1.272-1.656-2.347-3.508-3.175-5.535-2.141-5.24-2.283-10.798-0.792-15.834" fill="none" stroke="#231f20" stroke-linecap="round" stroke-linejoin="round" stroke-miterlimit="10" stroke-width="2"/>
  </g>
  <g transform="matrix(.35278 0 0 -.35278 -61.612 -6.2367)">
   <path d="m0 0c-1.225-0.681-2.394-1.47-3.488-2.36" fill="none" stroke="#231f20" stroke-linecap="round" stroke-linejoin="round" stroke-miterlimit="10" stroke-width="2"/>
  </g>
  <g transform="matrix(.35278 0 0 -.35278 -69.878 -3.028)">
   <path d="m0 0c-0.273-2.07-0.279-4.211 0.018-6.381 0.766-5.609 3.421-10.493 7.231-14.109" fill="none" stroke="#231f20" stroke-linecap="round" stroke-linejoin="round" stroke-miterlimit="10" stroke-width="2"/>
  </g>
  <g transform="matrix(.35278 0 0 -.35278 -68.75 -6.2562)">
   <path d="m0 0c-0.721-1.203-1.338-2.47-1.841-3.788" fill="none" stroke="#231f20" stroke-linecap="round" stroke-linejoin="round" stroke-miterlimit="10" stroke-width="2"/>
  </g>
  <g transform="matrix(.35278 0 0 -.35278 -74.305 .65618)">
   <path d="m0 0c0.798-1.93 1.864-3.786 3.206-5.517 3.468-4.474 8.21-7.377 13.317-8.603" fill="none" stroke="#231f20" stroke-linecap="round" stroke-linejoin="round" stroke-miterlimit="10" stroke-width="2"/>
  </g>
  <g transform="matrix(.35278 0 0 -.35278 -74.941 -2.704)">
   <path d="m0 0c-0.023-1.401 0.076-2.808 0.3-4.201" fill="none" stroke="#231f20" stroke-linecap="round" stroke-linejoin="round" stroke-miterlimit="10" stroke-width="2"/>
  </g>
  <g transform="matrix(.35278 0 0 -.35278 -76.296 6.0596)">
   <path d="m0 0c1.656-1.272 3.507-2.347 5.535-3.175 5.24-2.141 10.798-2.283 15.834-0.792" fill="none" stroke="#231f20" stroke-linecap="round" stroke-linejoin="round" stroke-miterlimit="10" stroke-width="2"/>
  </g>
  <g transform="matrix(.35278 0 0 -.35278 -78.527 3.4679)">
   <path d="m0 0c0.681-1.226 1.47-2.394 2.36-3.489" fill="none" stroke="#231f20" stroke-linecap="round" stroke-linejoin="round" stroke-miterlimit="10" stroke-width="2"/>
  </g>
  <g transform="matrix(.35278 0 0 -.35278 -75.318 11.735)">
   <path d="m0 0c2.07-0.274 4.211-0.279 6.381 0.018 5.609 0.766 10.493 3.421 14.109 7.231" fill="none" stroke="#231f20" stroke-linecap="round" stroke-linejoin="round" stroke-miterlimit="10" stroke-width="2"/>
  </g>
  <g transform="matrix(.35278 0 0 -.35278 -78.546 10.606)">
   <path d="m0 0c1.203-0.721 2.47-1.338 3.788-1.841" fill="none" stroke="#231f20" stroke-linecap="round" stroke-linejoin="round" stroke-miterlimit="10" stroke-width="2"/>
  </g>
  <g transform="matrix(.35278 0 0 -.35278 -71.634 16.161)">
   <path d="m0 0c1.93 0.798 3.786 1.864 5.517 3.206 4.474 3.468 7.377 8.21 8.603 13.316" fill="none" stroke="#231f20" stroke-linecap="round" stroke-linejoin="round" stroke-miterlimit="10" stroke-width="2"/>
  </g>
  <g transform="matrix(.35278 0 0 -.35278 -74.994 16.797)">
   <path d="m0 0c1.401-0.023 2.808 0.076 4.201 0.3" fill="none" stroke="#231f20" stroke-linecap="round" stroke-linejoin="round" stroke-miterlimit="10" stroke-width="2"/>
  </g>
  <g transform="matrix(.35278 0 0 -.35278 -66.23 18.152)">
   <path d="m0 0c1.272 1.656 2.347 3.508 3.175 5.535 2.141 5.24 2.283 10.798 0.792 15.834" fill="none" stroke="#231f20" stroke-linecap="round" stroke-linejoin="round" stroke-miterlimit="10" stroke-width="2"/>
  </g>
  <g transform="matrix(.35278 0 0 -.35278 -68.822 20.383)">
   <path d="m0 0c1.225 0.681 2.393 1.47 3.488 2.36" fill="none" stroke="#231f20" stroke-linecap="round" stroke-linejoin="round" stroke-miterlimit="10" stroke-width="2"/>
  </g>
  <g transform="matrix(.35278 0 0 -.35278 -60.555 17.174)">
   <path d="m0 0c0.274 2.07 0.279 4.211-0.018 6.381-0.766 5.609-3.421 10.493-7.231 14.109" fill="none" stroke="#231f20" stroke-linecap="round" stroke-linejoin="round" stroke-miterlimit="10" stroke-width="2"/>
  </g>
  <g transform="matrix(.35278 0 0 -.35278 -61.684 20.403)">
   <path d="m0 0c0.721 1.202 1.338 2.47 1.841 3.788" fill="none" stroke="#231f20" stroke-linecap="round" stroke-linejoin="round" stroke-miterlimit="10" stroke-width="2"/>
  </g>
  <g transform="matrix(.35278 0 0 -.35278 -56.129 13.49)">
   <path d="m0 0c-0.798 1.93-1.864 3.787-3.206 5.517-3.468 4.475-8.209 7.377-13.316 8.603" fill="none" stroke="#231f20" stroke-linecap="round" stroke-linejoin="round" stroke-miterlimit="10" stroke-width="2"/>
  </g>
  <g transform="matrix(.35278 0 0 -.35278 -55.493 16.85)">
   <path d="m0 0c0.023 1.401-0.076 2.808-0.299 4.201" fill="none" stroke="#231f20" stroke-linecap="round" stroke-linejoin="round" stroke-miterlimit="10" stroke-width="2"/>
  </g>
  <g transform="matrix(.35278 0 0 -.35278 -54.138 8.0867)">
   <path d="m0 0c-1.656 1.272-3.508 2.347-5.535 3.175-5.24 2.141-10.798 2.283-15.834 0.792" fill="none" stroke="#231f20" stroke-linecap="round" stroke-linejoin="round" stroke-miterlimit="10" stroke-width="2"/>
  </g>
  <g transform="matrix(.35278 0 0 -.35278 -51.907 10.678)">
   <path d="m0 0c-0.681 1.226-1.47 2.394-2.36 3.488" fill="none" stroke="#231f20" stroke-linecap="round" stroke-linejoin="round" stroke-miterlimit="10" stroke-width="2"/>
  </g>
  <g transform="matrix(.35278 0 0 -.35278 -55.116 2.4116)">
   <path d="m0 0c-2.07 0.274-4.211 0.279-6.38-0.018-5.61-0.766-10.494-3.421-14.109-7.231" fill="none" stroke="#231f20" stroke-linecap="round" stroke-linejoin="round" stroke-miterlimit="10" stroke-width="2"/>
  </g>
  <g transform="matrix(.35278 0 0 -.35278 -51.888 3.5404)">
   <path d="m0 0c-1.202 0.721-2.47 1.338-3.788 1.841" fill="none" stroke="#231f20" stroke-linecap="round" stroke-linejoin="round" stroke-miterlimit="10" stroke-width="2"/>
  </g>
  <g transform="matrix(.35278 0 0 -.35278 -58.8 -2.0145)">
   <path d="m0 0c-1.93-0.798-3.787-1.864-5.517-3.206-4.475-3.468-7.377-8.21-8.603-13.316" fill="none" stroke="#231f20" stroke-linecap="round" stroke-linejoin="round" stroke-miterlimit="10" stroke-width="2"/>
  </g>
  <g transform="matrix(.35278 0 0 -.35278 -55.44 -2.6509)">
   <path d="m0 0c-1.401 0.023-2.808-0.076-4.201-0.3" fill="none" stroke="#231f20" stroke-linecap="round" stroke-linejoin="round" stroke-miterlimit="10" stroke-width="2"/>
  </g>
  <g transform="matrix(.35278 0 0 -.35278 -17.209 180.16)" fill="none" stroke="#231f20" stroke-linecap="round" stroke-linejoin="round" stroke-miterlimit="10" stroke-width="2">
   <path d="m0 0 14.935 31.956h-21.242l33.256 38.882"/>
   <path d="m0 0 31.62 38.882h-21.242l16.571 31.956"/>
  </g>
  <g transform="matrix(.35278 0 0 -.35278 -3.5248 180.16)" fill="none" stroke="#231f20" stroke-linecap="round" stroke-linejoin="round" stroke-miterlimit="10" stroke-width="2">
   <path d="m0 0 9.771 20.907h-13.897l21.757 25.439"/>
   <path d="m0 0 20.687 25.439h-13.897l10.841 20.907"/>
  </g>
 </g>
</svg>
